<?xml version="1.0" encoding="UTF-8"?>
<svg version="1.1" xmlns="http://www.w3.org/2000/svg" width="1057" height="255">
<path d="M0 0 C2.0687257 -0.00067582 4.13745132 -0.00164815 6.20617676 -0.00289917 C10.51587693 -0.00436307 14.82555619 -0.00226403 19.13525391 0.00244141 C24.6149385 0.00813786 30.09457409 0.0048518 35.5742569 -0.00113106 C39.83832152 -0.00477221 44.10237483 -0.00358188 48.36643982 -0.00100327 C50.38512681 -0.00034379 52.40381488 -0.00112747 54.42250061 -0.00348282 C100.45735915 -0.04542882 100.45735915 -0.04542882 115.90625 14.1953125 C125.00488759 23.73933794 128.35206066 35.48069966 128.83544922 48.33789062 C128.87304792 49.20502937 128.91064663 50.07216812 128.94938469 50.9655838 C129.33332351 60.59283298 129.36383888 70.21811141 129.3515625 79.8515625 C129.35223937 81.77046725 129.35321255 83.68937191 129.35446167 85.60827637 C129.35592067 89.5948164 129.35384285 93.58133374 129.34912109 97.56787109 C129.34342495 102.61658282 129.34671373 107.66524133 129.35269356 112.71395111 C129.35634829 116.6659178 129.35513832 120.61787237 129.35256577 124.56983948 C129.35191 126.42891954 129.3526762 128.2880008 129.35504532 130.14707947 C129.36462378 139.76936279 129.24549327 149.3727777 128.81201172 158.98632812 C128.76178454 160.20869549 128.76178454 160.20869549 128.71054268 161.45575714 C128.07344544 173.98542129 123.87717701 185.38206761 114.96484375 194.41796875 C98.12667163 208.87771527 76.91316284 207.439382 56.0625 207.3984375 C53.62740032 207.39978759 51.19230091 207.40173098 48.75720215 207.40423584 C43.67388319 207.40717091 38.59063491 207.40294174 33.50732422 207.39355469 C27.02516807 207.38216125 20.54317761 207.38872941 14.06102753 207.40069962 C9.03870417 207.40796203 4.01641943 207.40561024 -1.00590515 207.40044403 C-3.39466878 207.39911963 -5.78343604 207.40071232 -8.17219543 207.40540314 C-48.33195538 207.46697802 -48.33195538 207.46697802 -63.52734375 194.41796875 C-73.13195156 184.6801948 -76.83427343 172.67606493 -77.375 159.34375 C-77.41422577 158.42179337 -77.45345154 157.49983673 -77.49386597 156.54994202 C-78.06580936 140.81455207 -77.93050502 125.05403922 -77.91162109 109.31079102 C-77.90592101 104.52903302 -77.90921828 99.74733117 -77.91519356 94.96557522 C-77.91885345 91.21173195 -77.91763611 87.4579014 -77.91506577 83.70405769 C-77.91441161 81.94349218 -77.9151701 80.18292541 -77.91754532 78.42236137 C-77.92762157 68.86370117 -77.77484125 59.3276993 -77.35107422 49.77758789 C-77.29613391 48.46803084 -77.29613391 48.46803084 -77.24008369 47.13201809 C-76.93049563 40.82379979 -76.12310874 35.04180629 -73.78125 29.1328125 C-73.46542969 28.30007812 -73.14960937 27.46734375 -72.82421875 26.609375 C-68.60794579 16.92535584 -60.9917805 9.33158014 -51.32421875 5.08984375 C-34.93214897 -1.07921477 -17.27098566 -0.02015132 0 0 Z " fill="#5799F9" transform="translate(101.78125,23.8671875)"/>
<path d="M0 0 C8.25 0 16.5 0 25 0 C32.87224843 10.12146226 32.87224843 10.12146226 35.9453125 14.6796875 C36.62327881 15.6814502 37.30124512 16.68321289 37.99975586 17.71533203 C39.05175171 19.27936768 39.05175171 19.27936768 40.125 20.875 C40.87278166 21.98184231 41.62091512 23.08844702 42.36938477 24.19482422 C43.87135618 26.41507707 45.3722905 28.63601596 46.87255859 30.85742188 C50.34478573 35.98646798 53.85065015 41.09237864 57.36181641 46.19482422 C62.31631394 53.41550448 67.14061543 60.71092315 72 68 C72.33 45.56 72.66 23.12 73 0 C82.9 0 92.8 0 103 0 C103 40.26 103 80.52 103 122 C94.42 122 85.84 122 77 122 C72.49906729 117.44209346 71.33596506 115.54568805 69 110 C67.45035809 107.47808838 65.72456966 105.09202181 64 102.6875 C63.06025799 101.32837038 62.12286384 99.96761517 61.1875 98.60546875 C56.84020804 92.31662728 52.47089589 86.04303386 48.09765625 79.7722168 C42.36066919 71.539963 36.68507036 63.26919325 31 55 C30.67 77.11 30.34 99.22 30 122 C20.1 122 10.2 122 0 122 C0 81.74 0 41.48 0 0 Z " fill="#FFFFFF" transform="translate(528,73)"/>
<path d="M0 0 C69.7142094 0 69.7142094 0 82.9609375 10.953125 C86.50977586 14.51556044 88.81646126 18.4999506 91 23 C91.3403125 23.67417969 91.680625 24.34835938 92.03125 25.04296875 C95.88836272 34.27503948 95.42444587 47.4949805 92.0390625 56.796875 C88.80574295 63.65248487 84.47422351 69.86122698 78 74 C76.67306342 74.35794998 75.3399777 74.69446988 74 75 C80.62351268 87.81042726 87.31890443 100.56886783 94.34082031 113.16650391 C95.06156738 114.47047119 95.06156738 114.47047119 95.796875 115.80078125 C96.43641113 116.94800659 96.43641113 116.94800659 97.08886719 118.1184082 C98 120 98 120 98 122 C93.53450817 122.19834763 89.07136975 122.3431785 84.6027832 122.43945312 C83.08442521 122.47959307 81.56637478 122.5341233 80.04907227 122.60351562 C67.72764782 123.15274988 67.72764782 123.15274988 64.14379883 120.76147461 C62.70709452 118.58853823 61.90352949 116.44776296 61 114 C59.80542467 111.39690101 58.54211681 108.82736534 57.28515625 106.25390625 C56.59025217 104.82628995 55.89559492 103.39855347 55.20117188 101.97070312 C54.84724365 101.24761963 54.49331543 100.52453613 54.12866211 99.77954102 C53.41596651 98.29751931 52.72130319 96.80669465 52.04467773 95.30786133 C51.04926355 93.11622687 49.98834917 90.96828437 48.91015625 88.81640625 C48.62624527 88.14670303 48.34233429 87.47699982 48.04981995 86.78700256 C46.99576134 84.54044434 46.99576134 84.54044434 44 82 C37.07 81.505 37.07 81.505 30 81 C30 94.53 30 108.06 30 122 C20.1 122 10.2 122 0 122 C0 81.74 0 41.48 0 0 Z M30 25 C30 35.56 30 46.12 30 57 C46.01877518 58.00953283 46.01877518 58.00953283 60 51.5 C63.75452124 46.80684844 63.60512056 41.77057 63 36 C61.96120625 32.49324402 60.36824904 29.99709278 57.39257812 27.82861328 C51.56780822 24.67327492 46.52311335 24.5179119 40 24.75 C36.7 24.8325 33.4 24.915 30 25 Z " fill="#FFFFFF" transform="translate(371,73)"/>
<path d="M0 0 C10.09534009 7.37933489 17.65424753 16.13756479 20.30859375 28.6875 C20.32621963 30.35407346 20.32817801 32.0209484 20.30859375 33.6875 C16.14640819 33.93593165 11.98820206 34.11664913 7.82080078 34.23681641 C6.40597376 34.2869188 4.99165997 34.35503362 3.57861328 34.44189453 C-0.97005062 34.71436559 -5.22872003 34.7920074 -9.69140625 33.6875 C-12.07830088 31.29417385 -13.26211053 29.20562611 -14.5715332 26.10327148 C-16.3915372 22.17718917 -18.7763639 21.32469953 -22.69140625 19.6875 C-31.70710082 16.91344013 -39.85637019 19.17700051 -47.94140625 23.375 C-54.99008687 29.30229962 -58.05942392 37.69222465 -58.87597656 46.73046875 C-59.6497956 59.31198691 -58.74580221 72.00972485 -50.3359375 82.1015625 C-44.04279363 88.17048509 -37.18742099 88.98807088 -28.80078125 88.90625 C-22.21060761 88.44261969 -16.36823111 86.50187853 -11.69140625 81.6875 C-9.10886203 77.44474878 -8.53793697 74.76668435 -7.69140625 69.6875 C-15.28140625 69.6875 -22.87140625 69.6875 -30.69140625 69.6875 C-30.69140625 62.4275 -30.69140625 55.1675 -30.69140625 47.6875 C-13.53140625 47.6875 3.62859375 47.6875 21.30859375 47.6875 C21.37046875 51.915625 21.43234375 56.14375 21.49609375 60.5 C21.53706177 62.4641687 21.53706177 62.4641687 21.57885742 64.46801758 C21.68224944 79.21749985 17.51311186 91.85980521 7.30859375 102.6875 C-4.31824729 112.46636631 -16.53665787 116.04691927 -31.50390625 116 C-32.52033203 116.01611328 -33.53675781 116.03222656 -34.58398438 116.04882812 C-50.14669198 116.058747 -63.89288473 110.37777423 -75.14453125 99.59765625 C-86.94045934 86.11918014 -91.33358094 68.85642991 -90.9296875 51.19140625 C-89.79379857 34.48825268 -85.22158676 18.52155937 -72.69140625 6.6875 C-72.11132812 6.08808594 -71.53125 5.48867187 -70.93359375 4.87109375 C-53.00269359 -12.49712126 -20.35278019 -13.36800013 0 0 Z " fill="#FFFFFF" transform="translate(737.69140625,80.3125)"/>
<path d="M0 0 C0.68009125 -0.0049649 1.3601825 -0.00992981 2.06088257 -0.01504517 C4.3111879 -0.02965003 6.56142263 -0.03646745 8.81176758 -0.04199219 C10.3801524 -0.04774687 11.9485372 -0.05350456 13.516922 -0.05926514 C16.8079969 -0.06977164 20.09904741 -0.07561599 23.39013672 -0.07910156 C27.59204485 -0.0845728 31.79362672 -0.10857267 35.99543285 -0.13707352 C39.23752254 -0.15577128 42.47953494 -0.16090937 45.72167397 -0.16243744 C47.26971525 -0.16545054 48.81775561 -0.17343339 50.36574364 -0.18662262 C60.99561462 -0.27069549 69.71179006 0.09229948 78.26879883 7.16113281 C89.68391251 21.89117412 85.79087868 42.88525307 84.58129883 60.59863281 C84.50141724 62.08786255 84.50141724 62.08786255 84.41992188 63.60717773 C84.34555908 64.53119385 84.27119629 65.45520996 84.19458008 66.40722656 C84.10817261 67.60883423 84.10817261 67.60883423 84.02001953 68.8347168 C82.89827715 72.30858197 81.06892643 73.85363659 78.26879883 76.16113281 C74.91203308 76.7893219 74.91203308 76.7893219 71.03515625 76.79223633 C70.32551224 76.79939163 69.61586823 76.80654694 68.88471985 76.81391907 C66.54723994 76.83077658 64.21168695 76.81141776 61.87426758 76.79003906 C60.2414789 76.79086832 58.60869031 76.79332986 56.97590637 76.79734802 C53.55529622 76.80020435 50.1353414 76.78552676 46.71484375 76.75805664 C42.34685336 76.72405462 37.98004067 76.72996627 33.61199474 76.74871922 C30.23942902 76.75933132 26.86713335 76.75031207 23.49459267 76.7353344 C21.88517371 76.73017745 20.27572625 76.73060397 18.66631126 76.73687935 C9.14374052 76.76006364 1.66761596 76.72285112 -5.97338867 70.26660156 C-6.5122168 69.63367188 -7.05104492 69.00074219 -7.60620117 68.34863281 C-8.16049805 67.7234375 -8.71479492 67.09824219 -9.28588867 66.45410156 C-13.39869295 59.92919315 -13.3428893 52.14679854 -13.85620117 44.66113281 C-13.93749268 43.47946533 -14.01878418 42.29779785 -14.10253906 41.08032227 C-14.60971139 33.17446293 -15.01766411 25.26968772 -15.16870117 17.34863281 C-15.20302246 16.40761719 -15.23734375 15.46660156 -15.27270508 14.49707031 C-15.30076946 10.1158201 -15.16816775 7.10142859 -12.39135742 3.58691406 C-8.33666378 -0.11053785 -5.30939894 0.02946129 0 0 Z " fill="#E1E8FA" transform="translate(72.731201171875,87.8388671875)"/>
<path d="M0 0 C9.9 0 19.8 0 30 0 C30 40.26 30 80.52 30 122 C20.1 122 10.2 122 0 122 C0 81.74 0 41.48 0 0 Z " fill="#FFFFFF" transform="translate(480,73)"/>
<path d="M0 0 C1.03125 0.268125 2.0625 0.53625 3.125 0.8125 C3.785 2.4625 4.445 4.1125 5.125 5.8125 C4.465 5.8125 3.805 5.8125 3.125 5.8125 C3.12944122 6.56116837 3.13388245 7.30983673 3.13845825 8.08119202 C3.17863253 15.15746455 3.20903383 22.23369718 3.22862434 29.31005192 C3.2390348 32.94755505 3.25314357 36.58496347 3.27587891 40.22241211 C3.2977055 43.73670309 3.3095892 47.25090331 3.31475449 50.76525688 C3.32021541 52.74987153 3.33581255 54.73444998 3.35159302 56.7190094 C3.35234456 62.79227989 3.27647669 68.09880326 1.125 73.8125 C-4.15521276 73.39441864 -6.48478437 71.84229875 -10.25 68.1875 C-14.19300875 64.41686321 -18.17993027 60.8219648 -22.4140625 57.3828125 C-24.10596859 55.56423965 -24.48661763 54.2372656 -24.875 51.8125 C-25.865 51.8125 -26.855 51.8125 -27.875 51.8125 C-28.04952809 47.82942377 -28.17574085 43.84785981 -28.25952148 39.86181641 C-28.31156965 37.84848769 -28.4005711 35.83622323 -28.49023438 33.82421875 C-28.68362269 22.82871182 -28.68362269 22.82871182 -24.6953125 18.19921875 C-23.45339021 17.035732 -22.18117204 15.90336525 -20.875 14.8125 C-19.91316747 13.8837805 -18.95330938 12.95300861 -17.99609375 12.01953125 C-16.15104042 10.37321729 -14.30184251 8.73154018 -12.44921875 7.09375 C-10.96123261 5.77510978 -9.49249841 4.43249842 -8.08203125 3.03125 C-5.17305636 0.22366029 -4.14905343 -0.20076065 0 0 Z " fill="#E1E8FA" transform="translate(191.875,89.1875)"/>
<path d="M0 0 C0.66 0 1.32 0 2 0 C1.99214478 1.86918091 1.99214478 1.86918091 1.98413086 3.77612305 C1.96600619 8.40730061 1.95454067 13.03847505 1.94506836 17.66967773 C1.94004522 19.67261279 1.93322555 21.67554419 1.92456055 23.6784668 C1.91240655 26.56039331 1.90675143 29.44227125 1.90234375 32.32421875 C1.89718246 33.21711105 1.89202118 34.11000336 1.88670349 35.029953 C1.88633061 39.17931475 2.06072893 42.93788223 3 47 C2.33339854 52.33281165 1.04697307 56.32767543 -3.125 59.8125 C-4.07375 60.534375 -5.0225 61.25625 -6 62 C-6.66 61.67 -7.32 61.34 -8 61 C-8.73734375 61.30550781 -9.4746875 61.61101562 -10.234375 61.92578125 C-16.42081193 64.3287052 -24.01253315 63.35055089 -30.5 62.4375 C-35.20292778 61.82296134 -39.68347716 62.31287 -44.390625 62.73828125 C-52.32386365 63.31352691 -60.62109242 63.62939761 -68.5 62.4375 C-72.61136195 61.92357976 -75.92216237 62.34463324 -80 63 C-80.33 61.68 -80.66 60.36 -81 59 C-82.5778125 58.8453125 -82.5778125 58.8453125 -84.1875 58.6875 C-89.06921881 57.80719005 -91.64356791 56.35643209 -95.125 52.875 C-97.80878141 48.75986851 -100.51171869 43.73699079 -99.57421875 38.72265625 C-99.38472656 38.15417969 -99.19523437 37.58570313 -99 37 C-98.72027344 37.65226562 -98.44054687 38.30453125 -98.15234375 38.9765625 C-94.96583219 45.92336262 -91.64127485 51.15602267 -84.34182739 54.05609131 C-80.61005662 55.11014062 -77.46547461 55.25400504 -73.58935547 55.25878906 C-72.51503265 55.26404602 -72.51503265 55.26404602 -71.41900635 55.26940918 C-69.06829943 55.27816133 -66.7178971 55.27240185 -64.3671875 55.265625 C-62.72624657 55.26697323 -61.08530602 55.26891508 -59.44436646 55.27142334 C-56.01316507 55.27436551 -52.58206812 55.27010509 -49.15087891 55.26074219 C-44.75478779 55.24933012 -40.35894044 55.25592389 -35.9628582 55.26788712 C-32.5776689 55.27511487 -29.19253739 55.27281389 -25.80734634 55.26763153 C-24.18623958 55.2662985 -22.56512756 55.26793061 -20.94402695 55.27259064 C-18.67982829 55.27767293 -16.41602472 55.26992275 -14.15185547 55.25878906 C-12.86423309 55.25719788 -11.57661072 55.25560669 -10.24996948 55.25396729 C-7.15949581 55.01246372 -5.47571324 54.82037076 -3 53 C-0.99783491 50.04495991 -0.73559957 47.56877208 -0.68115234 44.04785156 C-0.66128265 43.06713684 -0.64141296 42.08642212 -0.62094116 41.07598877 C-0.60938995 40.02481873 -0.59783875 38.97364868 -0.5859375 37.890625 C-0.56657135 36.80867859 -0.5472052 35.72673218 -0.5272522 34.61199951 C-0.46749763 31.15807974 -0.42108703 27.70412656 -0.375 24.25 C-0.33681647 21.90753759 -0.29776452 19.56508916 -0.2578125 17.22265625 C-0.16179944 11.48189501 -0.07673973 5.74104947 0 0 Z " fill="#1E4DB4" transform="translate(158,110)"/>
<path d="M0 0 C0.33 0 0.66 0 1 0 C1.08302368 1.59485229 1.08302368 1.59485229 1.16772461 3.22192383 C1.37621092 7.21601516 1.58749159 11.20995485 1.79956055 15.20385742 C1.89047673 16.92321913 1.98066336 18.6426196 2.07006836 20.36206055 C2.14057829 42.27567586 2.14057829 42.27567586 11.109375 61.45703125 C16.14219567 65.56439523 21.19375739 66.37438022 27.54003906 66.35644531 C28.25800659 66.35848969 28.97597412 66.36053406 29.71569824 66.36264038 C32.06594123 66.36562508 34.41546656 66.34724648 36.765625 66.328125 C38.40752998 66.32506403 40.04943755 66.32319048 41.69134521 66.32244873 C45.1208297 66.31786072 48.55007741 66.30348888 51.97949219 66.28125 C56.37672408 66.25287945 60.77377061 66.24202774 65.17108536 66.2375679 C68.55623222 66.23341457 71.94134165 66.22359923 75.32646942 66.21169281 C76.94839937 66.2059956 78.57033289 66.20123508 80.19226837 66.19742584 C82.45408986 66.19055957 84.7157645 66.17692769 86.97753906 66.16113281 C88.26436584 66.15430481 89.55119263 66.14747681 90.87701416 66.14044189 C94.03222768 66.14108461 94.03222768 66.14108461 97 65 C97.99432285 62.01703146 98.28722381 59.58098005 98.53515625 56.45703125 C98.62216797 55.38388672 98.70917969 54.31074219 98.79882812 53.20507812 C98.88583984 52.08552734 98.97285156 50.96597656 99.0625 49.8125 C99.15337891 48.68134766 99.24425781 47.55019531 99.33789062 46.38476562 C99.56193614 43.59009264 99.78250144 40.79518889 100 38 C100.33 38 100.66 38 101 38 C101.08732726 41.89569135 101.14050185 45.79112982 101.1875 49.6875 C101.21263672 50.79029297 101.23777344 51.89308594 101.26367188 53.02929688 C101.27333984 54.09599609 101.28300781 55.16269531 101.29296875 56.26171875 C101.3086792 57.24100342 101.32438965 58.22028809 101.34057617 59.22924805 C100.93247053 62.5493849 100.02491454 64.34988275 98 67 C94.43045535 69.40975192 91.12001177 69.26533986 86.89575195 69.29052734 C85.83391441 69.30060318 85.83391441 69.30060318 84.75062561 69.31088257 C82.41310576 69.32985954 80.07587333 69.3337872 77.73828125 69.3359375 C76.10645939 69.34236792 74.47463868 69.34909647 72.84281921 69.35610962 C69.42065766 69.36808325 65.99859703 69.37179059 62.57641602 69.37060547 C58.20972072 69.3704028 53.84368003 69.39765048 49.47713947 69.43214989 C46.10459984 69.45449022 42.73221563 69.45844076 39.3596096 69.45738602 C37.75098614 69.45973335 36.14235783 69.46850759 34.53380775 69.48405075 C24.87903102 69.56857341 16.40607125 69.53965582 8.66015625 63.03515625 C3.2115182 56.30762027 3.2115182 56.30762027 2 52 C2.66 54.97 3.32 57.94 4 61 C3.01 61.495 3.01 61.495 2 62 C1.33838853 60.38135984 0.696722 58.75456686 0.0625 57.125 C-0.29714844 56.22007812 -0.65679687 55.31515625 -1.02734375 54.3828125 C-5.96534968 37.20886418 -3.33997422 17.21677187 0 0 Z " fill="#687EC9" transform="translate(57,97)"/>
<path d="M0 0 C0.33 0 0.66 0 1 0 C1.02187378 1.22517334 1.02187378 1.22517334 1.04418945 2.47509766 C1.11886923 6.1921976 1.21546612 9.90841919 1.3125 13.625 C1.33505859 14.91019531 1.35761719 16.19539063 1.38085938 17.51953125 C1.41630859 18.76347656 1.45175781 20.00742188 1.48828125 21.2890625 C1.51446533 22.43068848 1.54064941 23.57231445 1.56762695 24.74853516 C2.4440417 31.33921361 5.8324935 35.26153837 10.6875 39.5 C11.22133301 39.9741333 11.75516602 40.4482666 12.30517578 40.93676758 C13.85908808 42.30457559 15.42659537 43.65470016 17 45 C18.16595703 46.01126953 18.16595703 46.01126953 19.35546875 47.04296875 C22.47706562 49.58492674 24.34668747 50.89111458 28.375 51.5625 C31.33939556 51.24637454 31.33939556 51.24637454 33 48 C33.32653695 45.80049913 33.32653695 45.80049913 33.31884766 43.3449707 C33.33871735 42.40422195 33.35858704 41.46347321 33.37905884 40.49421692 C33.39061005 39.48163315 33.40216125 38.46904938 33.4140625 37.42578125 C33.43342865 36.38681198 33.4527948 35.34784271 33.4727478 34.27738953 C33.53257299 30.95584344 33.57894104 27.63426276 33.625 24.3125 C33.66317705 22.06183376 33.70222861 19.81118218 33.7421875 17.56054688 C33.83827689 12.04049456 33.92331581 6.52035414 34 1 C34.33 1 34.66 1 35 1 C35.21874973 8.35018599 35.41373158 15.7007244 35.59204102 23.05200195 C35.6555477 25.55377533 35.72453544 28.05541572 35.79907227 30.55688477 C35.90514457 34.14839331 35.99162493 37.73991574 36.07421875 41.33203125 C36.11157639 42.45398392 36.14893402 43.57593658 36.18742371 44.73188782 C36.20767105 45.77274033 36.2279184 46.81359283 36.2487793 47.88598633 C36.27320602 48.80309891 36.29763275 49.72021149 36.32279968 50.66511536 C36 53 36 53 34.70710754 54.77275085 C31.99450535 56.72285572 29.26715993 56.76238837 26 57 C25.34 56.67 24.68 56.34 24 56 C24 55.34 24 54.68 24 54 C23.01 54 22.02 54 21 54 C21 53.34 21 52.68 21 52 C19.9275 51.79375 18.855 51.5875 17.75 51.375 C13.16282462 49.69303569 12.54212599 48.0515133 10 44 C8.2801244 42.75676429 6.54424908 41.68348613 4.68359375 40.6640625 C-1.36127949 34.6893154 -0.57339308 25.09639307 -0.75 17.25 C-0.79253906 16.03183594 -0.83507812 14.81367187 -0.87890625 13.55859375 C-1.16965231 3.7916799 -1.16965231 3.7916799 0 0 Z " fill="#2A4A9F" transform="translate(163,113)"/>
<path d="M0 0 C0.66 0 1.32 0 2 0 C2.0695219 8.53621693 2.12282218 17.07231549 2.15543652 25.60874557 C2.17109008 29.5725988 2.19232243 33.53625828 2.22631836 37.5 C2.25892327 41.32551222 2.27685534 45.15083812 2.28463173 48.97647858 C2.29017325 50.43573184 2.30099456 51.89497495 2.31719017 53.35414886 C2.33898033 55.398758 2.34196639 57.44259805 2.34057617 59.48730469 C2.34723801 60.65090515 2.35389984 61.81450562 2.36076355 63.0133667 C1.96295111 66.30671463 1.35428202 67.69393615 -1 70 C-4.68911445 70.63414519 -6.41532321 70.36290284 -9.60546875 68.3828125 C-10.45753906 67.63773437 -11.30960938 66.89265625 -12.1875 66.125 C-13.12722656 65.30773437 -14.06695312 64.49046875 -15.03515625 63.6484375 C-16.50275391 62.33746094 -16.50275391 62.33746094 -18 61 C-19.03871791 60.11525062 -20.07908605 59.23243499 -21.12109375 58.3515625 C-29.55234057 51.04959842 -29.55234057 51.04959842 -30 46 C-29.34 46 -28.68 46 -28 46 C-27.0952038 47.41173876 -26.19156312 48.82423016 -25.29345703 50.24023438 C-22.83869389 53.57997252 -19.59709164 56.09923363 -16.4375 58.75 C-15.76525391 59.32621094 -15.09300781 59.90242188 -14.40039062 60.49609375 C-8.97330958 65.49131767 -8.97330958 65.49131767 -2 67 C-1.22757829 62.86578862 -0.85572156 58.92254167 -0.79467773 54.71923828 C-0.77473251 53.4984256 -0.75478729 52.27761292 -0.73423767 51.01980591 C-0.71752518 49.71647308 -0.70081268 48.41314026 -0.68359375 47.0703125 C-0.66299757 45.71124681 -0.64200045 44.35218714 -0.62062073 42.99313354 C-0.56567487 39.43238226 -0.51614553 35.87157583 -0.46777344 32.31072998 C-0.41735647 28.67064562 -0.36177629 25.03064041 -0.30664062 21.390625 C-0.19939577 14.26048546 -0.09787739 7.13027478 0 0 Z " fill="#B0BCE4" transform="translate(195,95)"/>
<path d="M0 0 C0.99 0.495 0.99 0.495 2 1 C3.73549859 8.441092 4.18709775 16.26010982 4.6875 23.875 C4.73592041 24.56335938 4.78434082 25.25171875 4.83422852 25.9609375 C5.06148578 29.97533337 4.80639196 33.64019413 4.23364258 37.63427734 C3.7016255 43.02115869 3.94248352 48.46845044 4 53.875 C4.02541599 56.30985231 4.04648071 58.74475524 4.0625 61.1796875 C4.07410156 62.24944824 4.08570313 63.31920898 4.09765625 64.42138672 C4 67 4 67 3 69 C2.34 69 1.68 69 1 69 C0.85476119 62.22718985 0.71273554 55.45431731 0.57275391 48.68139648 C0.52495933 46.38613424 0.47647802 44.09088617 0.42724609 41.7956543 C0.12889506 27.86144316 -0.07571892 13.93753906 0 0 Z " fill="#3971D5" transform="translate(197,95)"/>
<path d="M0 0 C0.49628906 0.39832031 0.99257813 0.79664063 1.50390625 1.20703125 C2.18324219 1.73683594 2.86257812 2.26664063 3.5625 2.8125 C4.22378906 3.33457031 4.88507813 3.85664063 5.56640625 4.39453125 C11.27623356 8.16136756 15.85177494 9.37480417 22.67944336 9.43237305 C23.41198334 9.4425647 24.14452332 9.45275635 24.89926147 9.46325684 C27.29620184 9.4932074 29.69274143 9.50262486 32.08984375 9.51171875 C33.76137094 9.52857881 35.43288556 9.54673084 37.10438538 9.56611633 C41.48548451 9.61347854 45.86653264 9.64337676 50.24780273 9.66955566 C54.72585113 9.699431 59.20372403 9.74593727 63.68164062 9.79101562 C72.45434057 9.87689184 81.22705675 9.94430651 90 10 C90 10.66 90 11.32 90 12 C80.24639578 12.11617769 70.4929579 12.20485868 60.738801 12.25906086 C56.20883697 12.28508381 51.67934856 12.32034694 47.1496582 12.37719727 C42.77296758 12.43177959 38.39673259 12.46147539 34.01972771 12.47438622 C32.35523246 12.48357932 30.69076035 12.50153115 29.02646065 12.52865028 C18.1509417 12.69871196 10.216538 11.98799735 1.9375 4.3125 C0 2 0 2 0 0 Z " fill="#132B78" transform="translate(62,156)"/>
<path d="M0 0 C0.33 0 0.66 0 1 0 C1.00808685 0.66097183 1.01617371 1.32194366 1.02450562 2.00294495 C1.11072808 8.89774439 1.21023936 15.79226218 1.31738281 22.68676758 C1.35560724 25.25800843 1.3904714 27.82930156 1.421875 30.40063477 C1.46766698 34.10191501 1.52563923 37.80283736 1.5859375 41.50390625 C1.59748871 42.64896133 1.60903992 43.79401642 1.62094116 44.97377014 C1.72592648 50.68328445 2.06871206 55.60933488 4 61 C3.01 61.495 3.01 61.495 2 62 C1.33838853 60.38135984 0.696722 58.75456686 0.0625 57.125 C-0.29714844 56.22007812 -0.65679687 55.31515625 -1.02734375 54.3828125 C-5.96534968 37.20886418 -3.33997422 17.21677187 0 0 Z " fill="#4279DA" transform="translate(57,97)"/>
<path d="M0 0 C2.26325877 3.39488816 2.25668211 4.59175804 2.265625 8.57421875 C2.26949219 9.70633789 2.27335938 10.83845703 2.27734375 12.00488281 C2.26832031 13.22014648 2.25929687 14.43541016 2.25 15.6875 C2.24613281 16.92725586 2.24226562 18.16701172 2.23828125 19.44433594 C2.1290354 31.35516794 1.23612382 43.15819685 0 55 C-0.33 55 -0.66 55 -1 55 C-1.0252899 47.48861406 -1.04284141 39.97723903 -1.05493164 32.46582031 C-1.05997017 29.90884999 -1.06680107 27.35188257 -1.07543945 24.79492188 C-1.08752602 21.12629483 -1.09323301 17.45770577 -1.09765625 13.7890625 C-1.10539818 12.0655809 -1.10539818 12.0655809 -1.11329651 10.30728149 C-1.11337204 9.2463327 -1.11344757 8.18538391 -1.11352539 7.09228516 C-1.115746 6.15518707 -1.11796661 5.21808899 -1.12025452 4.25259399 C-1 2 -1 2 0 0 Z " fill="#ADB9E0" transform="translate(156,104)"/>
<path d="M0 0 C0.66 0 1.32 0 2 0 C1.99476318 1.24612061 1.98952637 2.49224121 1.98413086 3.77612305 C1.96600619 8.40730061 1.95454067 13.03847505 1.94506836 17.66967773 C1.94004522 19.67261279 1.93322555 21.67554419 1.92456055 23.6784668 C1.91240655 26.56039331 1.90675143 29.44227125 1.90234375 32.32421875 C1.89718246 33.21711105 1.89202118 34.11000336 1.88670349 35.029953 C1.88633061 39.17931475 2.06072893 42.93788223 3 47 C2.33339854 52.33281165 1.04697307 56.32767543 -3.125 59.8125 C-4.07375 60.534375 -5.0225 61.25625 -6 62 C-6 61.01 -6 60.02 -6 59 C-5.34 59 -4.68 59 -4 59 C-3.87625 58.401875 -3.7525 57.80375 -3.625 57.1875 C-3 55 -3 55 -1 52 C-0.6723603 49.59700223 -0.6723603 49.59700223 -0.68115234 46.88598633 C-0.66128265 45.84513382 -0.64141296 44.80428131 -0.62094116 43.73188782 C-0.60361435 42.04895882 -0.60361435 42.04895882 -0.5859375 40.33203125 C-0.55688828 38.60710701 -0.55688828 38.60710701 -0.5272522 36.84733582 C-0.46740239 33.16913301 -0.42104894 29.490899 -0.375 25.8125 C-0.33682524 23.32094978 -0.29777381 20.82941283 -0.2578125 18.33789062 C-0.16169638 12.22537806 -0.07666462 6.11278579 0 0 Z " fill="#2D5EC2" transform="translate(158,110)"/>
<path d="M0 0 C0.66 0 1.32 0 2 0 C2.9047962 1.41173876 3.80843688 2.82423016 4.70654297 4.24023438 C7.16130611 7.57997252 10.40290836 10.09923363 13.5625 12.75 C14.23474609 13.32621094 14.90699219 13.90242187 15.59960938 14.49609375 C18.33864178 16.82984728 21.0006507 19.0004338 24 21 C26.51599015 20.66347631 26.51599015 20.66347631 29 20 C29.99 20 30.98 20 32 20 C30.875 22 30.875 22 29 24 C25.35841733 24.47875353 23.54131268 24.33598718 20.39453125 22.3828125 C19.54246094 21.63773438 18.69039062 20.89265625 17.8125 20.125 C16.87277344 19.30773437 15.93304688 18.49046875 14.96484375 17.6484375 C13.98644531 16.77445313 13.00804687 15.90046875 12 15 C10.96128209 14.11525062 9.92091395 13.23243499 8.87890625 12.3515625 C0.44765943 5.04959842 0.44765943 5.04959842 0 0 Z " fill="#7C90D2" transform="translate(165,141)"/>
<path d="M0 0 C0.33 0 0.66 0 1 0 C1.21874973 7.35018599 1.41373158 14.7007244 1.59204102 22.05200195 C1.6555477 24.55377533 1.72453544 27.05541572 1.79907227 29.55688477 C1.90514457 33.14839331 1.99162493 36.73991574 2.07421875 40.33203125 C2.11157639 41.45398392 2.14893402 42.57593658 2.18742371 43.73188782 C2.20767105 44.77274033 2.2279184 45.81359283 2.2487793 46.88598633 C2.27320602 47.80309891 2.29763275 48.72021149 2.32279968 49.66511536 C2 52 2 52 0.70710754 53.77275085 C-2.00549465 55.72285572 -4.73284007 55.76238837 -8 56 C-8.66 55.67 -9.32 55.34 -10 55 C-10 54.34 -10 53.68 -10 53 C-7.36 52.34 -4.72 51.68 -2 51 C-1.19591093 47.78364371 -0.85565368 45.47188124 -0.79467773 42.23144531 C-0.77473251 41.29077209 -0.75478729 40.35009888 -0.73423767 39.38092041 C-0.71752518 38.37349792 -0.70081268 37.36607544 -0.68359375 36.328125 C-0.66281265 35.29057068 -0.64203156 34.25301636 -0.62062073 33.184021 C-0.55528592 29.87274742 -0.49631483 26.56139518 -0.4375 23.25 C-0.39429951 21.00389815 -0.35068473 18.75780422 -0.30664062 16.51171875 C-0.19962097 11.00789543 -0.09782478 5.50399402 0 0 Z " fill="#2D59BB" transform="translate(197,114)"/>
<path d="M0 0 C0.33 0 0.66 0 1 0 C1.06058594 1.03640625 1.12117188 2.0728125 1.18359375 3.140625 C1.26803371 4.51042873 1.35267997 5.88021975 1.4375 7.25 C1.47681641 7.93191406 1.51613281 8.61382812 1.55664062 9.31640625 C1.76115983 13.09117803 1.76115983 13.09117803 2.51367188 16.78125 C3.20403157 19.93084283 3.11086101 22.94991344 3.09765625 26.171875 C3.09553383 27.1955014 3.09553383 27.1955014 3.09336853 28.23980713 C3.08779084 30.40991684 3.07524254 32.5799217 3.0625 34.75 C3.05748211 36.22525892 3.05291971 37.70051947 3.04882812 39.17578125 C3.03782875 42.78388798 3.02057953 46.39193375 3 50 C2.67 50 2.34 50 2 50 C0.54913996 33.29774553 -0.31620934 16.7663924 0 0 Z " fill="#BCC7E9" transform="translate(58,95)"/>
<path d="M0 0 C3.14804441 5.31855511 2.82297291 11.47766203 3.25 17.5 C3.353125 18.73621094 3.45625 19.97242188 3.5625 21.24609375 C3.65015625 22.43332031 3.7378125 23.62054688 3.828125 24.84375 C3.9096582 25.92849609 3.99119141 27.01324219 4.07519531 28.13085938 C3.99873746 31.04817327 3.53013078 32.55474753 2 35 C0.46273748 23.2646477 -0.26964377 11.8343655 0 0 Z " fill="#4D83E1" transform="translate(198,96)"/>
<path d="M0 0 C0.33 0 0.66 0 1 0 C1.01981934 1.26593994 1.03963867 2.53187988 1.06005859 3.83618164 C1.13639172 8.55333638 1.22506586 13.27019378 1.31738281 17.98706055 C1.35555836 20.02476105 1.39043077 22.06252631 1.421875 24.1003418 C1.46777432 27.03718134 1.52572716 29.97357941 1.5859375 32.91015625 C1.59748871 33.81459976 1.60903992 34.71904327 1.62094116 35.65089417 C1.73967778 40.79222588 2.34477187 45.1243368 4 50 C3.01 50.495 3.01 50.495 2 51 C-0.68045338 46.00545278 -0.25330309 40.95688221 -0.1953125 35.44921875 C-0.1924826 34.43527542 -0.18965271 33.42133209 -0.18673706 32.37666321 C-0.17556625 29.14682073 -0.15046711 25.91725829 -0.125 22.6875 C-0.1149662 20.49414464 -0.10584105 18.30078492 -0.09765625 16.10742188 C-0.07563707 10.73818614 -0.04219023 5.36911308 0 0 Z " fill="#3764C4" transform="translate(57,108)"/>
<path d="M0 0 C7.55746962 6.40741989 15.10489643 12.87505965 22 20 C21.01 20 20.02 20 19 20 C19 19.34 19 18.68 19 18 C17.39125 17.690625 17.39125 17.690625 15.75 17.375 C11.16282462 15.69303569 10.54212599 14.0515133 8 10 C6.24343337 8.64080609 6.24343337 8.64080609 4.3125 7.4375 C1.10994526 5.32983577 1.10994526 5.32983577 0.0625 2.1875 C0.0315625 1.1046875 0.0315625 1.1046875 0 0 Z " fill="#204DB3" transform="translate(165,147)"/>
<path d="M0 0 C0.99 0.495 0.99 0.495 2 1 C2.33 10.24 2.66 19.48 3 29 C2.01 29 1.02 29 0 29 C0 19.43 0 9.86 0 0 Z " fill="#B1BDE4" transform="translate(164,112)"/>
<path d="M0 0 C0.33 0 0.66 0 1 0 C1.05534912 0.79172607 1.11069824 1.58345215 1.16772461 2.39916992 C1.42101108 5.99552159 1.67920386 9.59150481 1.9375 13.1875 C2.02451172 14.43337891 2.11152344 15.67925781 2.20117188 16.96289062 C2.33168945 18.7659668 2.33168945 18.7659668 2.46484375 20.60546875 C2.543396 21.71043701 2.62194824 22.81540527 2.70288086 23.95385742 C2.97050727 26.69763286 3.40272573 29.31117188 4 32 C3.01 31.67 2.02 31.34 1 31 C-0.34978177 27.69397772 -0.1142812 24.22761404 -0.09765625 20.703125 C-0.09443359 19.49785156 -0.09121094 18.29257813 -0.08789062 17.05078125 C-0.07951172 15.79652344 -0.07113281 14.54226562 -0.0625 13.25 C-0.05798828 11.98027344 -0.05347656 10.71054688 -0.04882812 9.40234375 C-0.03704556 6.26818164 -0.02059416 3.13411459 0 0 Z " fill="#879BD3" transform="translate(58,118)"/>
<path d="M0 0 C0.99 0 1.98 0 3 0 C2.0518738 2.37031549 1.31103322 3.76672508 -0.75 5.3125 C-3.75172093 6.22969251 -5.97769126 5.68688835 -9 5 C-9 4.34 -9 3.68 -9 3 C-8.43410156 2.86722656 -7.86820313 2.73445312 -7.28515625 2.59765625 C-6.18494141 2.33275391 -6.18494141 2.33275391 -5.0625 2.0625 C-4.33160156 1.88847656 -3.60070312 1.71445313 -2.84765625 1.53515625 C-1.00030102 1.16112431 -1.00030102 1.16112431 0 0 Z " fill="#245AC3" transform="translate(196,164)"/>
<path d="M0 0 C0.66 0.33 1.32 0.66 2 1 C0.71580959 2.67243402 -0.57757185 4.33781447 -1.875 6 C-2.59429687 6.928125 -3.31359375 7.85625 -4.0546875 8.8125 C-4.69664062 9.534375 -5.33859375 10.25625 -6 11 C-6.66 11 -7.32 11 -8 11 C-7.43040847 7.37386801 -6.07625466 5.74482259 -3.4375 3.25 C-2.79683594 2.63640625 -2.15617188 2.0228125 -1.49609375 1.390625 C-1.00238281 0.93171875 -0.50867188 0.4728125 0 0 Z " fill="#D1DAF1" transform="translate(173,102)"/>
<path d="M0 0 C0.66 0.33 1.32 0.66 2 1 C0.875 3 0.875 3 -1 5 C-3.9375 5.5 -3.9375 5.5 -7 5 C-9.375 3 -9.375 3 -11 1 C-10.37351563 1.09539062 -9.74703125 1.19078125 -9.1015625 1.2890625 C-7.87566406 1.45535156 -7.87566406 1.45535156 -6.625 1.625 C-5.81289062 1.74101562 -5.00078125 1.85703125 -4.1640625 1.9765625 C-3.44992188 1.98429688 -2.73578125 1.99203125 -2 2 C-1.34 1.34 -0.68 0.68 0 0 Z " fill="#6B81CC" transform="translate(195,160)"/>
<path d="M0 0 C4.18423892 3.50897269 8.19588166 7.08060535 12 11 C7.90910906 11 6.55081513 9.30133052 3.5859375 6.66796875 C1.64924152 4.63109884 0.71720882 2.70945555 0 0 Z " fill="#243E8C" transform="translate(165,145)"/>
<path d="M0 0 C0.66 0 1.32 0 2 0 C3.47265625 1.6796875 3.47265625 1.6796875 5.0625 3.875 C5.85333984 4.95394531 5.85333984 4.95394531 6.66015625 6.0546875 C8 8 8 8 9 10 C5.91085915 9.66902062 4.9973069 8.99715301 2.8125 6.6875 C1.20592291 4.30533398 0.41425314 2.79620867 0 0 Z " fill="#778BCF" transform="translate(60,150)"/>
<path d="M0 0 C0.66 0 1.32 0 2 0 C3.39300182 1.95890881 4.72245446 3.9639118 6 6 C6.99 7.485 6.99 7.485 8 9 C4.86493389 8.66410006 3.974751 7.97334828 1.75 5.625 C0 3 0 3 0 0 Z " fill="#90A1D9" transform="translate(165,141)"/>
<path d="M0 0 C0.33 0 0.66 0 1 0 C1.06058594 0.73605469 1.12117188 1.47210938 1.18359375 2.23046875 C1.26738281 3.20628906 1.35117187 4.18210938 1.4375 5.1875 C1.51871094 6.15042969 1.59992187 7.11335937 1.68359375 8.10546875 C1.97666151 10.78649602 2.42703754 13.3662986 3 16 C2.01 15.67 1.02 15.34 0 15 C0 10.05 0 5.1 0 0 Z " fill="#93A3DA" transform="translate(59,134)"/>
<path d="M0 0 C1.96301592 3.50538557 2.95902388 7.13351728 4 11 C3.01 11.495 3.01 11.495 2 12 C0.00214565 7.8794254 -0.17835515 4.54805635 0 0 Z " fill="#2E65CE" transform="translate(57,147)"/>
<path d="M0 0 C1.98 1.65 3.96 3.3 6 5 C5.67 5.99 5.34 6.98 5 8 C2.5 5.6875 2.5 5.6875 0 3 C0 2.01 0 1.02 0 0 Z " fill="#2553B7" transform="translate(165,147)"/>
</svg>
